<?xml version="1.0" encoding="UTF-8"?>
<svg xmlns="http://www.w3.org/2000/svg" viewBox="0 0 1200 630" width="1200" height="630">
  <defs>
    <linearGradient id="g18227" x1="68.73032967079561%" y1="3.640807271660627%" x2="31.269670329204395%" y2="96.35919272833937%">
      <stop offset="0%" stop-color="#1E40AF"/>
      <stop offset="100%" stop-color="#1E3A8A"/>
    </linearGradient>
  </defs>
  <rect width="1200" height="630" fill="url(#g18227)"/>
  <polygon points="470.6599084381014,225.48904547002167 540.6599084381014,185.48904547002167 610.6599084381014,225.48904547002167 540.6599084381014,265.48904547002167" fill="rgba(255,255,255,0.08)" stroke="rgba(255,255,255,0.15)" stroke-width="2"/><line x1="600.6599084381014" y1="230.48904547002167" x2="600.6599084381014" y2="285.48904547002167" stroke="rgba(255,255,255,0.12)" stroke-width="2"/><path d="M 818.3849479071796 399.11462747026235 C 788.3849479071796 389.11462747026235 738.3849479071796 394.11462747026235 728.3849479071796 329.11462747026235 L 818.3849479071796 339.11462747026235 L 908.3849479071796 329.11462747026235 C 898.3849479071796 394.11462747026235 848.3849479071796 389.11462747026235 818.3849479071796 399.11462747026235 Z" fill="rgba(255,255,255,0.06)" stroke="rgba(255,255,255,0.12)" stroke-width="1.5"/><line x1="818.3849479071796" y1="399.11462747026235" x2="818.3849479071796" y2="339.11462747026235" stroke="rgba(255,255,255,0.12)" stroke-width="1.5"/><rect x="243.91887076199055" y="356.1434758082032" width="8" height="100" rx="1" fill="rgba(255,255,255,0.1)" transform="rotate(35.22003261372447 243.91887076199055 356.1434758082032)"/><circle cx="1033.8354889769107" cy="178.0468835681677" r="30" fill="none" stroke="rgba(255,255,255,0.12)" stroke-width="2"/><line x1="1023.8354889769107" y1="208.0468835681677" x2="1043.8354889769107" y2="208.0468835681677" stroke="rgba(255,255,255,0.1)" stroke-width="2"/><line x1="1025.8354889769107" y1="215.0468835681677" x2="1041.8354889769107" y2="215.0468835681677" stroke="rgba(255,255,255,0.1)" stroke-width="2"/><circle cx="608.1224357243627" cy="127.65707115177065" r="4.371249271556735" fill="rgba(255,255,255,0.09065595170482993)"/><circle cx="691.3243693299592" cy="384.91792026208714" r="5.807730264030397" fill="rgba(255,255,255,0.11658951949328183)"/><circle cx="806.3389762071893" cy="496.9256040896289" r="4.214163487777114" fill="rgba(255,255,255,0.07478753451257944)"/><circle cx="559.7031050361693" cy="255.28602790785953" r="2.6912485249340534" fill="rgba(255,255,255,0.049131405223160986)"/><circle cx="811.8087513372302" cy="90.29680816223845" r="3.398849000222981" fill="rgba(255,255,255,0.07638785224407912)"/><circle cx="761.8265479570255" cy="576.7912976932712" r="3.6877440037205815" fill="rgba(255,255,255,0.07505921561270952)"/><circle cx="960.8134700218216" cy="423.3036798541434" r="2.851416965946555" fill="rgba(255,255,255,0.05810243964195251)"/><circle cx="806.5003962256014" cy="497.68883507465944" r="5.386544135399163" fill="rgba(255,255,255,0.10220301484689118)"/><circle cx="276.0233935434371" cy="533.0752040958032" r="2.1752841556444764" fill="rgba(255,255,255,0.04163134913891554)"/><circle cx="880.2771965740249" cy="369.92386743659154" r="4.713060178793967" fill="rgba(255,255,255,0.054272629246115686)"/><circle cx="81.35818208102137" cy="407.001993174199" r="3.127708696760237" fill="rgba(255,255,255,0.07596731511875987)"/><circle cx="833.1561457132921" cy="232.9910478182137" r="5.331725797615945" fill="rgba(255,255,255,0.042799344696104524)"/><circle cx="848.5676746349782" cy="442.6006251713261" r="4.956852062605321" fill="rgba(255,255,255,0.08582483893260359)"/><circle cx="437.50090922694653" cy="369.09185537835583" r="2.579089947976172" fill="rgba(255,255,255,0.0960313379392028)"/><circle cx="649.1076616337523" cy="555.4894939553924" r="4.506174514070153" fill="rgba(255,255,255,0.0848648246191442)"/>
  <circle cx="317.3313282430172" cy="426.31536674452946" r="2.484423895832151" fill="rgba(255,255,255,0.071251772781834)"/><circle cx="126.49925574660301" cy="335.16476816497743" r="2.5404612659476697" fill="rgba(255,255,255,0.051893746277783065)"/><circle cx="590.4252994805574" cy="32.54339241189882" r="1.2270070426166058" fill="rgba(255,255,255,0.06179984452435747)"/><circle cx="871.3964072987437" cy="181.67011497309431" r="1.8137060394510627" fill="rgba(255,255,255,0.04606735843233764)"/><circle cx="936.4038733765483" cy="463.482025670819" r="1.0399719211272895" fill="rgba(255,255,255,0.07712403703015297)"/><circle cx="1112.229937221855" cy="502.842507250607" r="2.131672754418105" fill="rgba(255,255,255,0.07488269889261573)"/><circle cx="691.4318553172052" cy="156.05075999395922" r="2.6005594171583652" fill="rgba(255,255,255,0.051946210321038966)"/><circle cx="150.22366493940353" cy="617.5159956794232" r="1.4391205981373787" fill="rgba(255,255,255,0.041711606301832946)"/><circle cx="756.4098187722266" cy="217.1262190514244" r="1.701146127190441" fill="rgba(255,255,255,0.049299221364781265)"/><circle cx="339.99644285067916" cy="359.2078008293174" r="2.896380925551057" fill="rgba(255,255,255,0.0617273190128617)"/><circle cx="1018.9456994645298" cy="161.9518276141025" r="2.1322957812808454" fill="rgba(255,255,255,0.07727919581346214)"/><circle cx="1086.9585209526122" cy="564.2362428246997" r="2.55878840200603" fill="rgba(255,255,255,0.07290364255430176)"/><circle cx="666.848552506417" cy="5.423905507195741" r="2.942560941912234" fill="rgba(255,255,255,0.05364335182355717)"/><circle cx="335.05544448271394" cy="300.0169098121114" r="2.8052807534113526" fill="rgba(255,255,255,0.07594639478018508)"/><circle cx="1071.9920558854938" cy="251.39546640682966" r="1.7153818514198065" fill="rgba(255,255,255,0.04651202194625512)"/><circle cx="744.8465027846396" cy="158.4808645164594" r="1.431575301103294" fill="rgba(255,255,255,0.0723782849451527)"/><circle cx="1184.3011926859617" cy="333.53672839701176" r="1.4666814939118922" fill="rgba(255,255,255,0.04446108486270532)"/><circle cx="420.295977126807" cy="567.9047661856748" r="2.737862012349069" fill="rgba(255,255,255,0.05424370039952919)"/><circle cx="1163.755139708519" cy="385.18268533749506" r="1.2996313530020416" fill="rgba(255,255,255,0.04165034990990534)"/><circle cx="17.95787774026394" cy="124.49370382586494" r="1.5954906521365047" fill="rgba(255,255,255,0.051102859778329734)"/>
  <text x="600" y="335" font-family="system-ui, -apple-system, 'Segoe UI', sans-serif" font-size="68" font-weight="700" fill="rgba(0,0,0,0.15)" text-anchor="middle" letter-spacing="1">Unicamp Vestibular</text>
  <text x="600" y="332" font-family="system-ui, -apple-system, 'Segoe UI', sans-serif" font-size="68" font-weight="700" fill="white" text-anchor="middle" letter-spacing="1">Unicamp Vestibular</text>
  <g transform="translate(1140, 575)">
    <rect x="0" y="0" width="40" height="40" rx="8" fill="rgba(255,255,255,0.15)"/>
    <text x="20" y="29" font-family="sans-serif" font-weight="bold" font-size="24" fill="rgba(255,255,255,0.6)" text-anchor="middle">K</text>
  </g>
</svg>